<?xml version="1.0" encoding="UTF-8" standalone="no"?>
<!DOCTYPE svg PUBLIC "-//W3C//DTD SVG 1.1//EN" "http://www.w3.org/Graphics/SVG/1.1/DTD/svg11.dtd">
<svg width="100%" height="100%" viewBox="0 0 64 64" version="1.1" xmlns="http://www.w3.org/2000/svg" xmlns:xlink="http://www.w3.org/1999/xlink" xml:space="preserve" xmlns:serif="http://www.serif.com/" style="fill-rule:evenodd;clip-rule:evenodd;stroke-linecap:round;stroke-linejoin:round;stroke-miterlimit:1.5;">
    <g transform="matrix(0.972973,0,0,1,2.32432,18)">
        <path d="M12,14L49,14" style="fill:none;stroke:black;stroke-width:0.31px;"/>
    </g>
    <path d="M19.272,44.648C19.272,44.648 37.741,26.179 48.092,15.828C49.236,14.684 50.956,14.342 52.451,14.961C53.946,15.58 54.92,17.039 54.92,18.657C54.92,25.87 54.92,35.36 54.92,40.648C54.92,42.857 53.129,44.648 50.92,44.648C40.622,44.648 14,44.648 14,44.648" style="fill:none;stroke:black;stroke-width:0.22px;"/>
    <g transform="matrix(-1,0,0,-1,63.861,63.8406)">
        <path d="M19.272,44.648C19.272,44.648 37.741,26.179 48.092,15.828C49.236,14.684 50.956,14.342 52.451,14.961C53.946,15.58 54.92,17.039 54.92,18.657C54.92,25.87 54.92,35.36 54.92,40.648C54.92,42.857 53.129,44.648 50.92,44.648C40.622,44.648 14,44.648 14,44.648" style="fill:none;stroke:black;stroke-width:0.22px;"/>
    </g>
</svg>
